<?xml version="1.0" standalone="no"?>
<!DOCTYPE svg PUBLIC "-//W3C//DTD SVG 20010904//EN"
 "http://www.w3.org/TR/2001/REC-SVG-20010904/DTD/svg10.dtd">
<svg version="1.0" xmlns="http://www.w3.org/2000/svg"
 width="384.000000pt" height="384.000000pt" viewBox="0 0 384.000000 384.000000"
 preserveAspectRatio="xMidYMid meet">
<metadata>
Created by potrace 1.11, written by Peter Selinger 2001-2013
</metadata>
<g transform="translate(0.000000,384.000000) scale(0.100000,-0.100000)"
fill="#000000" stroke="none">
<path d="M1730 3700 c-393 -85 -809 -389 -1206 -880 -240 -296 -387 -631 -401
-915 -12 -254 74 -522 256 -795 245 -366 577 -683 930 -884 356 -204 777 -244
1259 -120 355 91 693 298 872 534 122 162 182 287 235 495 48 189 60 292 59
525 -1 298 -44 544 -137 776 -110 272 -247 476 -467 694 -315 312 -683 523
-1004 575 -123 20 -290 18 -396 -5z"/>
</g>
</svg>
