<?xml version="1.0" encoding="iso-8859-1"?>
<!-- Generator: Adobe Illustrator 19.0.0, SVG Export Plug-In . SVG Version: 6.00 Build 0)  -->
<svg version="1.1" id="Capa_1" xmlns="http://www.w3.org/2000/svg" xmlns:xlink="http://www.w3.org/1999/xlink" x="0px" y="0px"
	 viewBox="0 0 206.51 206.51" style="enable-background:new 0 0 206.51 206.51;" xml:space="preserve">
<circle style="fill:#FFFFFF;" cx="102.284" cy="109.382" r="61.525"/>
<path style="fill:#602F75;" d="M102.275,174.322c-35.809,0-64.945-29.133-64.945-64.942s29.135-64.942,64.945-64.942
	s64.945,29.133,64.945,64.942S138.085,174.322,102.275,174.322z M102.275,51.265c-32.046,0-58.119,26.069-58.119,58.115
	s26.071,58.115,58.119,58.115s58.119-26.071,58.119-58.115S134.322,51.265,102.275,51.265z"/>
<circle style="fill:#FFE600;" cx="122.781" cy="129.896" r="23.927"/>
<path style="fill:#602F75;" d="M20.816,206.51c-4.787,0.002-8.711-1.302-11.544-4.134c-12.819-12.817,6.835-45.672,19.692-64.116
	c1.079-1.545,3.205-1.927,4.751-0.848c1.546,1.077,1.927,3.205,0.848,4.751c-22.996,32.992-25.395,50.454-20.465,55.386
	c1.502,1.502,3.821,2.239,6.845,2.239c17.466,0.003,58.552-24.605,102.847-68.896c23.996-23.994,44.063-48.983,56.509-70.364
	c8.8-15.116,16.087-33.382,10.148-39.32c-7.485-7.487-33.652,5.193-56.264,21.076c-1.543,1.085-3.671,0.71-4.755-0.831
	c-1.084-1.543-0.712-3.671,0.831-4.755c18.719-13.15,52.055-33.273,65.014-20.316c9.73,9.728,0.435,31.244-9.074,47.582
	c-12.733,21.874-33.183,47.358-57.583,71.757C90.993,173.343,44.964,206.508,20.816,206.51z"/>
<g>
	<circle style="fill:#EA3457;" cx="187.737" cy="51.27" r="13.67"/>
	<circle style="fill:#00E7FF;" cx="27.071" cy="27.343" r="17.101"/>
</g>
<g>
	<path style="fill:#FFE600;" d="M81.765,20.5c-1.884,0-3.413-1.529-3.413-3.413V3.413C78.351,1.529,79.881,0,81.765,0
		c1.884,0,3.413,1.529,3.413,3.413v13.674C85.178,18.971,83.649,20.5,81.765,20.5z"/>
	<path style="fill:#FFE600;" d="M88.602,13.664H74.928c-1.884,0-3.413-1.529-3.413-3.413s1.529-3.413,3.413-3.413h13.674
		c1.884,0,3.413,1.529,3.413,3.413S90.486,13.664,88.602,13.664z"/>
	<path style="fill:#FFE600;" d="M16.814,92.283c-1.884,0-3.413-1.529-3.413-3.413V75.196c0-1.884,1.529-3.413,3.413-3.413
		c1.884,0,3.413,1.529,3.413,3.413V88.87C20.227,90.755,18.7,92.283,16.814,92.283z"/>
	<path style="fill:#FFE600;" d="M23.651,85.446H9.977c-1.884,0-3.413-1.529-3.413-3.413c0-1.884,1.529-3.413,3.413-3.413h13.674
		c1.884,0,3.413,1.529,3.413,3.413C27.064,83.917,25.537,85.446,23.651,85.446z"/>
	<path style="fill:#FFE600;" d="M184.318,157.23c-1.884,0-3.413-1.529-3.413-3.413v-13.674c0-1.884,1.529-3.413,3.413-3.413
		s3.413,1.529,3.413,3.413v13.674C187.732,155.701,186.202,157.23,184.318,157.23z"/>
	<path style="fill:#FFE600;" d="M191.155,150.393h-13.674c-1.884,0-3.413-1.529-3.413-3.413c0-1.884,1.529-3.413,3.413-3.413h13.674
		c1.884,0,3.413,1.529,3.413,3.413C194.569,148.864,193.039,150.393,191.155,150.393z"/>
</g>
<g>
	<path style="fill:#602F75;" d="M88.602,88.864H47.58c-1.884,0-3.413-1.529-3.413-3.413c0-1.884,1.529-3.413,3.413-3.413h41.021
		c1.884,0,3.413,1.529,3.413,3.413C92.015,87.335,90.486,88.864,88.602,88.864z"/>
	<path style="fill:#602F75;" d="M78.346,102.538H44.162c-1.884,0-3.413-1.529-3.413-3.413c0-1.884,1.529-3.413,3.413-3.413h34.185
		c1.884,0,3.413,1.529,3.413,3.413C81.76,101.009,80.232,102.538,78.346,102.538z"/>
	<path style="fill:#602F75;" d="M68.091,116.21H44.162c-1.884,0-3.413-1.529-3.413-3.413c0-1.884,1.529-3.413,3.413-3.413h23.929
		c1.884,0,3.413,1.529,3.413,3.413C71.504,114.681,69.977,116.21,68.091,116.21z"/>
</g>
<g>
</g>
<g>
</g>
<g>
</g>
<g>
</g>
<g>
</g>
<g>
</g>
<g>
</g>
<g>
</g>
<g>
</g>
<g>
</g>
<g>
</g>
<g>
</g>
<g>
</g>
<g>
</g>
<g>
</g>
</svg>
