<svg id="Layer_1" enable-background="new 0 0 473.378 473.378" height="512" viewBox="0 0 473.378 473.378" width="512" xmlns="http://www.w3.org/2000/svg"><path d="m308.319 112.949-26.56-26.56c-4.686-4.687-4.686-12.284 0-16.971 4.687-4.687 12.284-4.687 16.971 0l26.56 26.56c4.686 4.687 4.686 12.284 0 16.971-4.686 4.686-12.284 4.686-16.971 0z" fill="#2c2c33"/><path d="m386.859 191.489-26.56-26.56c-4.686-4.687-4.686-12.284 0-16.971 4.687-4.687 12.284-4.687 16.971 0l26.56 26.56c4.686 4.687 4.686 12.284 0 16.971-4.686 4.686-12.284 4.686-16.971 0z" fill="#2c2c33"/><path d="m246.234 457.374h-214.36c-8.837 0-16-7.163-16-16v-214.36c56.632-34.767 130.092-33.068 185.52 7.03 71.968 52.013 89.993 149.779 44.84 223.33z" fill="#75f6fc"/><path d="m253.234 294.974c-88.63-21.52-181.788 7.474-237.36 86.45v-154.41c84.103-51.638 193.894-19.159 237.36 67.96z" fill="#bbfbff"/><path d="m433.218 167.759 35.345 35.351c6.247 6.249 6.247 16.378-.001 22.626l-30.484 30.484c-6.248 6.248-16.379 6.248-22.627 0l-35.35-35.35c-6.249-6.249-6.248-16.382.002-22.63 21.84-21.831 30.497-30.491 30.487-30.482 6.248-6.249 16.38-6.248 22.628.001z" fill="#4d4e59"/><path d="m305.489 40.03c6.249 6.248 6.25 16.38.001 22.628-21.315 21.315-30.492 30.498-30.482 30.487-6.248 6.25-16.38 6.251-22.63.002l-35.35-35.35c-6.248-6.248-6.248-16.379 0-22.627l30.484-30.484c6.248-6.248 16.378-6.248 22.626-.001z" fill="#4d4e59"/><path d="m406.634 118.434c-46.474 46.461-29.278 29.267-75.7 75.69-6.24 6.25-16.38 6.25-22.62 0-18.052-18.052-11.351-11.353-29.36-29.35-6.24-6.25-6.24-16.38 0-22.63 46.415-46.415 29.222-29.224 75.7-75.69 6.24-6.25 16.38-6.25 22.62 0l29.36 29.35c6.24 6.249 6.24 16.38 0 22.63z" fill="#d6f4fc"/><path d="m374.786 75.628c-5.724 1.295-.884-2.232-82.732 79.616-2.194 2.198-3.567 4.528-4.172 7.023-.977 4.035-5.992 5.441-8.928 2.507-6.24-6.25-6.24-16.38 0-22.63 46.415-46.415 29.222-29.224 75.7-75.69 6.24-6.25 16.38-6.25 22.62 0 2.993 2.992 1.64 8.24-2.488 9.174z" fill="#e8f8fc"/><path d="m304.404 205.434c0 9.41-3.59 18.81-10.77 25.99l-3.38 3.39c-3.13 3.12-8.19 3.12-11.32 0l-40.66-40.67c-3.13-3.12-3.13-8.19 0-11.31l3.38-3.39c23.214-23.23 62.75-6.455 62.75 25.99z" fill="#d6f4fc"/><path d="m267.902 168.677c8.581.073 10.333 12.263 2.128 14.775-9.699 2.969-14.535 8.488-18.586 12.552-3.458 3.447-8.185 3.125-10.993.317l-2.177-2.177c-3.13-3.12-3.13-8.19 0-11.31 3.856-3.868 12.737-14.301 29.628-14.157z" fill="#e8f8fc"/><path d="m328.661 144.587c-6.249-6.248-6.249-16.379 0-22.627l2.82-2.82c6.248-6.249 16.379-6.249 22.627 0 6.249 6.248 6.249 16.379 0 22.627l-2.82 2.82c-6.247 6.248-16.379 6.249-22.627 0z" fill="#75f6fc"/><g fill="#e8f8fc"><path d="m394.448 472.1c-8.133-3.455-11.925-12.849-8.47-20.982.618-1.454 1.216-2.917 1.814-4.391 3.328-8.186 12.663-12.122 20.849-8.795 8.186 3.329 12.123 12.663 8.795 20.849-.662 1.627-1.324 3.244-2.006 4.85-3.456 8.135-12.854 11.922-20.982 8.469z"/><path d="m413.294 422.898c-8.624-1.928-14.052-10.481-12.125-19.105.855-3.825 1.64-7.718 2.332-11.571 1.563-8.698 9.881-14.48 18.577-12.919 8.697 1.563 14.481 9.88 12.919 18.577-.771 4.294-1.646 8.632-2.598 12.894-1.928 8.624-10.481 14.052-19.105 12.124z"/><path d="m423.543 363.871c-8.835-.161-15.867-7.454-15.706-16.289.029-1.563.038-3.136.038-4.708 0-8.836 7.164-16 16-16s16 7.164 16 16c0 1.768-.011 3.535-.042 5.292-.161 8.715-7.303 15.837-16.29 15.705z"/><path d="m109.377 49.705c-.161-8.835 6.871-16.128 15.706-16.289 1.757-.032 3.524-.042 5.292-.042 8.836 0 16 7.164 16 16s-7.164 16-16 16c-1.572 0-3.145.009-4.709.038-8.976.132-16.13-6.978-16.289-15.707z"/><path d="m50.378 59.951c-1.929-8.623 3.498-17.178 12.122-19.107 4.252-.951 8.592-1.825 12.898-2.598 8.692-1.565 17.013 4.223 18.575 12.921 1.561 8.698-4.224 17.014-12.922 18.576-3.862.693-7.753 1.477-11.566 2.33-8.637 1.929-17.181-3.509-19.107-12.122z"/><path d="m1.373 78.608c-3.41-8.152.434-17.525 8.586-20.936 1.608-.672 3.227-1.345 4.855-1.996 8.205-3.281 17.516.711 20.796 8.917s-.711 17.517-8.916 20.797c-1.471.588-2.933 1.196-4.385 1.804-8.155 3.411-17.526-.434-20.936-8.586z"/></g><path d="m246.234 457.374h-.36l-25.769-29.392c-2.631-3.001-3.999-6.905-3.815-10.892l.319-6.943c.504-10.957-10.254-18.932-20.591-15.267-5.456 1.935-11.541.657-15.759-3.32l-9.821-9.262c-5.068-4.779-6.31-12.358-3.032-18.504l13.895-26.057c2.299-4.311 2.422-9.456.333-13.872l-17.396-36.775c-2.741-5.795-1.618-12.681 2.823-17.305l34.333-35.741c71.968 52.013 89.993 149.779 44.84 223.33z" fill="#befa91"/><path d="m117.78 411.488c20.526 31.389 19.689 25.237 14.334 45.885h-100.24c-8.837 0-16-7.163-16-16v-214l46.349 65.224c3.57 5.023 3.812 11.688.616 16.957l-23.326 38.457c-1.782 2.937-2.533 6.385-2.136 9.797l2.982 25.597c.81 6.956 6.199 12.496 13.13 13.499l53.575 7.751c4.387.635 8.29 3.124 10.716 6.833z" fill="#befa91"/><path d="m236.212 291.473c-23.52-3.972-47.309-4.433-70.528-1.309l-1.45-3.07c-2.74-5.8-1.61-12.69 2.83-17.31l34.33-35.74c17.556 12.685 31.904 28.102 42.908 45.222 3.763 5.852-1.229 13.365-8.09 12.207z" fill="#d0ffad"/><path d="m62.834 309.553c-25.241 41.628-25.285 40.498-25.53 45.71-2.554 2.679-5.002 5.383-7.347 8.1-4.859 5.629-14.083 2.245-14.083-5.192v-130.797l46.35 65.22c3.57 5.03 3.81 11.689.61 16.959z" fill="#d0ffad"/></svg>