<svg id="Capa_1" enable-background="new 0 0 462.699 462.699" height="512" viewBox="0 0 462.699 462.699" width="512" xmlns="http://www.w3.org/2000/svg" xmlns:xlink="http://www.w3.org/1999/xlink"><linearGradient id="lg1"><stop offset="0" stop-color="#20d6de"/><stop offset="1" stop-color="#5e309d"/></linearGradient><linearGradient id="SVGID_1_" gradientTransform="matrix(1 0 0 -1 0 460.668)" gradientUnits="userSpaceOnUse" x1="-61.559" x2="470.409" xlink:href="#lg1" y1="414.349" y2="414.349"/><linearGradient id="SVGID_2_" gradientTransform="matrix(1 0 0 -1 0 460.668)" gradientUnits="userSpaceOnUse" x1="-61.559" x2="470.409" xlink:href="#lg1" y1="59.703" y2="59.703"/><linearGradient id="SVGID_3_" gradientTransform="matrix(1 0 0 -1 0 460.668)" gradientUnits="userSpaceOnUse" x1="-61.559" x2="470.409" xlink:href="#lg1" y1="227.861" y2="227.861"/><linearGradient id="SVGID_4_" gradientTransform="matrix(1 0 0 -1 0 460.668)" gradientUnits="userSpaceOnUse" x1="-61.559" x2="470.409" xlink:href="#lg1" y1="321.832" y2="321.832"/><linearGradient id="SVGID_5_" gradientTransform="matrix(1 0 0 -1 0 460.668)" gradientUnits="userSpaceOnUse" x1="-61.559" x2="470.409" xlink:href="#lg1" y1="344.961" y2="344.961"/><linearGradient id="SVGID_6_" gradientTransform="matrix(1 0 0 -1 0 460.668)" gradientUnits="userSpaceOnUse" x1="-61.559" x2="470.409" xlink:href="#lg1" y1="167.638" y2="167.638"/><linearGradient id="SVGID_7_" gradientTransform="matrix(1 0 0 -1 0 460.668)" gradientUnits="userSpaceOnUse" x1="-61.559" x2="470.409" xlink:href="#lg1" y1="314.122" y2="314.122"/><linearGradient id="SVGID_8_" gradientTransform="matrix(1 0 0 -1 0 460.668)" gradientUnits="userSpaceOnUse" x1="-61.559" x2="470.409" xlink:href="#lg1" y1="136.8" y2="136.8"/><linearGradient id="SVGID_9_" gradientTransform="matrix(1 0 0 -1 0 460.668)" gradientUnits="userSpaceOnUse" x1="-61.559" x2="470.409" xlink:href="#lg1" y1="152.219" y2="152.219"/><linearGradient id="SVGID_10_" gradientTransform="matrix(1 0 0 -1 0 460.668)" gradientUnits="userSpaceOnUse" x1="-61.559" x2="470.409" xlink:href="#lg1" y1="445.187" y2="445.187"/><linearGradient id="SVGID_11_" gradientTransform="matrix(1 0 0 -1 0 460.668)" gradientUnits="userSpaceOnUse" x1="-61.559" x2="470.409" xlink:href="#lg1" y1="414.348" y2="414.348"/><linearGradient id="SVGID_12_" gradientTransform="matrix(1 0 0 -1 0 460.668)" gradientUnits="userSpaceOnUse" x1="-61.559" x2="470.409" xlink:href="#lg1" y1="429.767" y2="429.767"/><linearGradient id="SVGID_15_" gradientTransform="matrix(1 0 0 -1 0 460.668)" gradientUnits="userSpaceOnUse" x1="-61.559" x2="470.409" xlink:href="#lg1" y1="28.864" y2="28.864"/><linearGradient id="SVGID_16_" gradientTransform="matrix(1 0 0 -1 0 460.668)" gradientUnits="userSpaceOnUse" x1="-61.559" x2="470.409" xlink:href="#lg1" y1="44.284" y2="44.284"/><linearGradient id="SVGID_18_" gradientTransform="matrix(1 0 0 -1 0 460.668)" gradientUnits="userSpaceOnUse" x1="-61.559" x2="470.409" xlink:href="#lg1" y1="422.058" y2="422.058"/><linearGradient id="SVGID_19_" gradientTransform="matrix(1 0 0 -1 0 460.668)" gradientUnits="userSpaceOnUse" x1="-61.559" x2="470.409" xlink:href="#lg1" y1="398.929" y2="398.929"/><linearGradient id="SVGID_21_" gradientTransform="matrix(1 0 0 -1 0 460.668)" gradientUnits="userSpaceOnUse" x1="-61.559" x2="470.409" xlink:href="#lg1" y1="21.155" y2="21.155"/><g><g id="Gradient_outline_21_"><path d="m23.872 50.537c2.303 25.418 24.776 44.156 50.194 41.852 7.81-.708 15.312-3.392 21.799-7.799 6.456 2.413 13.246 3.814 20.13 4.156 2.472.066 4.932-.37 7.232-1.28 3.534-1.236 6.37-3.924 7.794-7.386 5.058-12.335-3.77-21.795-15.026-30.068.093-1.21.185-2.421.185-3.654.063-25.509-20.566-46.239-46.075-46.302-12.855-.031-25.142 5.296-33.905 14.701-21.379-4.233-31.764-2.614-35.094 5.52-4.488 10.971 5.003 19.991 22.766 30.26zm87.728 15.705c3.269 2.891 5.165 5.266 5.297 6.939-2.903.06-5.8-.306-8.596-1.087 1.242-1.867 2.345-3.823 3.299-5.852zm-41.678 10.917c-11.424-.042-21.883-6.413-27.161-16.545 3.793 1.927 7.756 3.909 11.904 5.975l4.094 2.051c6.283 3.138 11.765 5.674 16.869 7.941-1.881.368-3.791.562-5.706.578zm0-61.678c16.963-.074 30.775 13.617 30.849 30.581.034 7.763-2.873 15.252-8.137 20.958-7.008-2.722-15.843-6.623-26.984-12.181l-4.109-2.051c-6.939-3.446-14.733-7.37-21.988-11.241 2.345-14.969 15.217-26.017 30.369-26.066zm-42.82 13.307c-.629 1.548-1.174 3.128-1.634 4.734-2.738-1.67-5.323-3.58-7.725-5.705 3.137.123 6.263.448 9.359.971z" fill="url(#SVGID_1_)"/><path d="m323.925 400.965c0 34.064 27.614 61.677 61.677 61.677s61.677-27.614 61.677-61.677-27.614-61.677-61.677-61.677c-34.047.038-61.639 27.63-61.677 61.677zm61.677 46.258c-3.242-.003-6.475-.347-9.645-1.025l13.469-7.71c1.648-.94 2.892-2.456 3.492-4.256l4.896-14.695 7.471 3.739c.636.316 1.314.542 2.012.671l16.452 3.122c-8.612 12.601-22.885 20.141-38.147 20.154zm45.487-54.345c1.235 6.558.972 13.31-.771 19.752l-19.089-3.624-14.463-7.232c-3.801-1.918-8.438-.392-10.356 3.41-.172.34-.318.692-.437 1.054l-6.777 20.33-20.685 11.827c-6.769-4.89-12.096-11.513-15.419-19.174l20.446-2.914c2.894-.411 5.306-2.423 6.229-5.196l6.492-19.467 15.89-5.297 19.991 13.322c2.565 1.706 5.9 1.721 8.481.039zm-45.487-38.171c16.57.023 31.863 8.907 40.09 23.291l-9.252 6.021-18.889-12.598c-1.979-1.321-4.457-1.654-6.715-.902l-23.129 7.71c-2.305.767-4.113 2.576-4.88 4.88l-6.168 18.603-17.162 2.452c-.069-1.064-.154-2.12-.154-3.2.027-25.536 20.722-46.231 46.259-46.257z" fill="url(#SVGID_2_)"/><path d="m77.215 223.643c0 3.986.301 7.895.601 11.803-42.048 45.857-74.614 106.101-53.327 138.875 9.421 14.54 27.285 21.865 52.726 21.865 18.435-.421 36.744-3.167 54.492-8.172 17.765-4.803 35.208-10.726 52.225-17.732 80.814 26.308 167.654-17.878 193.962-98.692 3.754-11.532 6.132-23.467 7.083-35.557 52.757-56.998 71.754-111.551 53.351-139.938-18.804-28.958-72.001-19.621-127.572-4.41-72.701-44.002-167.307-20.736-211.309 51.965-14.6 24.122-22.291 51.794-22.232 79.993zm50.56 149.452c-46.543 12.22-79.471 9.606-90.35-7.162-12.914-19.922 5.528-65.879 43.174-110.318 9.918 46.167 40.389 85.271 82.733 106.17-12.258 4.487-24.193 8.341-35.557 11.31zm-34.917-145.073c49.766-12.775 79.34-19.798 138.551-19.798 14.472.861 28.155-6.658 35.187-19.336 5.464-8.565 13.145-15.492 22.227-20.045 11.546-5.407 23.907-8.867 36.582-10.238 8.545-.87 16.924-2.947 24.887-6.168 5.614 9.24 10.119 19.11 13.423 29.405-10.549 2.21-21.302 3.301-32.08 3.253-28.526 0-37.484 12.335-45.41 23.222-8.619 11.85-16.761 23.037-54.816 23.037-45.936 1.322-91.493 8.742-135.474 22.065-1.808-8.354-2.838-16.855-3.077-25.397zm90.828 125.76c-29.255-10.801-54.039-31.108-70.382-57.668 11.146-3.249 23.014-3.053 34.046.563 9.843 2.493 19.939 3.856 30.091 4.063 9.206.088 18.002-3.801 24.131-10.67 6.623-6.121 13.469-12.459 37.546-12.459 7.224 0 13.338.27 18.704.501 25.897 1.103 37.438.524 63.844-25.889 11.498-10.55 26.461-16.526 42.064-16.799-25.116 25.007-52.783 47.315-82.548 66.558-30.917 20.091-63.542 37.425-97.496 51.8zm47.723 8.635c-8.068-.043-16.116-.789-24.054-2.228 28.452-13.106 55.928-28.236 82.216-45.271 27.471-17.651 53.244-37.814 76.989-60.228-14.516 62.969-70.53 107.618-135.151 107.727zm79.355-121.096c-22.674 22.666-29.559 22.358-52.272 21.387-5.559-.239-11.888-.517-19.374-.517-30.114 0-40.468 9.575-48.024 16.56-3.274 4.204-8.326 6.635-13.654 6.569-9.035-.205-18.018-1.436-26.776-3.67-14.623-4.583-30.336-4.312-44.793.771-2.177-4.61-4.095-9.338-5.744-14.163 42.617-12.939 86.762-20.165 131.28-21.487 45.903 0 57.753-16.291 67.282-29.382 7.131-9.799 12.282-16.876 32.943-16.876 12.062.039 24.094-1.214 35.889-3.739 1.462 7.602 2.287 15.313 2.467 23.052-21.81-.98-43.118 6.753-59.224 21.495zm114.628-136.839c14.571 22.474-3.084 64.152-40.36 107.882-3.132-42.827-24.013-82.397-57.599-109.154 39.743-10.115 85.608-17.763 97.959 1.272zm-108.66 9.945c9.236 7.236 17.524 15.605 24.671 24.91-5.95 1.958-12.082 3.314-18.303 4.048-14.268 1.601-28.173 5.548-41.154 11.68-11.28 5.639-20.858 14.175-27.755 24.733-6.368 8.658-9.545 13.006-22.782 13.006-46.754-.393-93.313 6.077-138.188 19.205.412-5.175 1.114-10.323 2.105-15.419 8.132-1.81 16.148-4.101 24.008-6.862 21.055-7.91 43.328-12.087 65.818-12.343 18.596 0 26.668-11.634 33.152-20.978 6.823-9.814 12.212-17.57 28.526-17.57 26.419-.001 53.603-14.14 69.902-24.41zm-85.323-29.559c24.921.013 49.371 6.789 70.744 19.606.116.177.162.409.293.571-16.712 10.678-35.834 16.994-55.618 18.372-24.386 0-33.699 13.415-41.185 24.193-6.546 9.437-10.431 14.355-20.492 14.355-24.13.261-48.033 4.695-70.651 13.106-5.189 1.712-10.023 3.284-14.61 4.572 18.955-56.544 71.882-94.684 131.519-94.775z" fill="url(#SVGID_3_)"/><path d="m154.312 131.126h15.419v15.419h-15.419z" fill="url(#SVGID_4_)"/><path d="m185.151 107.997h15.419v15.419h-15.419z" fill="url(#SVGID_5_)"/><path d="m454.989 285.32c-12.774 0-23.129-10.355-23.129-23.129 0-4.258-3.452-7.71-7.71-7.71s-7.71 3.452-7.71 7.71c0 12.774-10.355 23.129-23.129 23.129-4.258 0-7.71 3.452-7.71 7.71s3.452 7.71 7.71 7.71c12.774 0 23.129 10.355 23.129 23.129 0 4.258 3.452 7.71 7.71 7.71s7.71-3.452 7.71-7.71c0-12.774 10.355-23.129 23.129-23.129 4.258 0 7.71-3.452 7.71-7.71s-3.452-7.71-7.71-7.71zm-30.838 15.658c-2.246-3.025-4.924-5.703-7.949-7.949 3.025-2.246 5.703-4.924 7.949-7.949 2.246 3.025 4.924 5.703 7.949 7.949-3.025 2.247-5.704 4.925-7.949 7.949z" fill="url(#SVGID_6_)"/><path d="m69.505 138.836c-12.774 0-23.129-10.355-23.129-23.129 0-4.258-3.452-7.71-7.71-7.71s-7.71 3.452-7.71 7.71c0 12.774-10.355 23.129-23.129 23.129-4.258 0-7.71 3.452-7.71 7.71s3.452 7.71 7.71 7.71c12.774 0 23.129 10.355 23.129 23.129 0 4.258 3.452 7.71 7.71 7.71s7.71-3.452 7.71-7.71c0-12.774 10.355-23.129 23.129-23.129 4.258 0 7.71-3.452 7.71-7.71s-3.452-7.71-7.71-7.71zm-30.838 15.659c-2.246-3.025-4.924-5.703-7.949-7.949 3.025-2.246 5.703-4.924 7.949-7.949 2.246 3.025 4.924 5.703 7.949 7.949-3.025 2.246-5.703 4.924-7.949 7.949z" fill="url(#SVGID_7_)"/><path d="m169.731 316.159h15.419v15.419h-15.419z" fill="url(#SVGID_8_)"/><path d="m208.28 300.739h15.419v15.419h-15.419z" fill="url(#SVGID_9_)"/><path d="m223.699 7.772h15.419v15.419h-15.419z" fill="url(#SVGID_10_)"/><path d="m223.699 38.61h15.419v15.419h-15.419z" fill="url(#SVGID_11_)"/><path d="m208.28 23.191h15.419v15.419h-15.419z" fill="url(#SVGID_12_)"/><path d="m239.118 23.191h15.419v15.419h-15.419z" fill="url(#SVGID_12_)"/><path d="m208.28 393.256h15.419v15.419h-15.419z" fill="url(#SVGID_2_)"/><path d="m208.28 424.094h15.419v15.419h-15.419z" fill="url(#SVGID_15_)"/><path d="m192.86 408.675h15.419v15.419h-15.419z" fill="url(#SVGID_16_)"/><path d="m223.699 408.675h15.419v15.419h-15.419z" fill="url(#SVGID_16_)"/><path d="m154.312 30.901h15.419v15.419h-15.419z" fill="url(#SVGID_18_)"/><path d="m300.796 54.03h15.419v15.419h-15.419z" fill="url(#SVGID_19_)"/><path d="m131.183 408.675h15.419v15.419h-15.419z" fill="url(#SVGID_16_)"/><path d="m269.957 431.804h15.419v15.419h-15.419z" fill="url(#SVGID_21_)"/></g></g></svg>