<?xml version="1.0" encoding="iso-8859-1"?>
<!-- Generator: Adobe Illustrator 19.0.0, SVG Export Plug-In . SVG Version: 6.00 Build 0)  -->
<svg version="1.1" id="Capa_1" xmlns="http://www.w3.org/2000/svg" xmlns:xlink="http://www.w3.org/1999/xlink" x="0px" y="0px"
	 viewBox="0 0 511.997 511.997" style="enable-background:new 0 0 511.997 511.997;" xml:space="preserve">
<path style="fill:#F8C289;" d="M320.83,328.052c-47.005,50.621-88.612,86.884-124.894,112.891
	c19.807,6.817,45.929,17.638,68.047,17.638c107.15,0,194.016-86.866,194.016-194.016c0-24.384-9.427-54.765-17.638-76.266
	C412.59,228.275,373.999,274.874,320.83,328.052z"/>
<path style="fill:#F8E9AF;" d="M465.751,0.042c-65.745,2.875-148.855,86.487-148.855,86.487l44.597,19.296
	c123.465-70.551,52.42,44.095,52.42,44.095s-0.591,0.776-1.667,2.196c-0.026,0.035-0.044,0.053-0.071,0.097
	c-17.162,22.471-157.744,204.37-261.155,270c-0.009,0.009-0.018,0.009-0.026,0.018l0,0c-0.547,0.344-1.102,0.741-1.649,1.076
	c-129.7,81.064-58.275-31.519-45.867-50.268c-2.478-3.66-5.036-7.258-7.267-11.094c0.123-0.212,0.212-0.37,0.212-0.37
	l-12.946-25.892c-0.467-1.191-0.803-2.443-1.243-3.642l-3.448-14.56c0,0-74.784,83.603-77.659,149.357
	c-1.085,24.693,19.208,45.638,43.909,45.153c43.283-0.855,136.923-22.056,280.68-176.872
	C475.637,185.195,510.048,87.234,510.904,43.951C511.398,19.24,490.444-1.043,465.751,0.042z"/>
<path style="fill:#F8C289;" d="M96.423,361.573c0,0-0.088,0.159-0.22,0.379c13.819,23.767,32.533,44.306,54.774,60.277
	c110.307-69.987,262.927-272.311,262.927-272.311s1.155-1.799,2.919-4.78c-15.204-19.428-34.006-35.867-55.436-48.336
	c-0.141,0.071-17.506-9.022-17.506-9.022c-24.367-11.041-51.397-17.232-79.899-17.232c-107.15,0-194.016,86.866-194.016,194.016
	c0,25.116,4.824,49.086,13.511,71.116L96.423,361.573z"/>
<g>
	<path style="fill:#FFD7AD;" d="M158.156,167.557c-2.178,0-4.357-0.794-6.059-2.408c-3.536-3.342-3.695-8.925-0.353-12.47
		c27.321-28.9,70.322-46.855,112.212-46.855c0.009,0,0.018,0,0.026,0c4.877,0,8.819,3.951,8.819,8.819s-3.951,8.819-8.819,8.819l0,0
		c-0.009,0-0.018,0-0.026,0c-37.207,0-75.287,15.839-99.389,41.334C162.839,166.631,160.502,167.557,158.156,167.557z"/>
	<path style="fill:#FFD7AD;" d="M117.457,294.25c-4.215,0-7.937-3.025-8.678-7.32c-2.319-13.458-3.51-26.915-3.528-39.985
		c-0.009-4.868,3.933-8.819,8.81-8.828h0.009c4.868,0,8.81,3.942,8.819,8.81c0.018,12.082,1.12,24.534,3.272,37.013
		c0.829,4.797-2.39,9.366-7.187,10.186C118.453,294.205,117.95,294.25,117.457,294.25z"/>
	<path style="fill:#FFD7AD;" d="M149.478,361.3c-3.827,3.237-9.604,2.61-12.602-1.411c-4.401-5.918-10.248-14.375-13.255-21.245
		c-1.958-4.462,0.079-9.666,4.542-11.615c4.462-1.958,9.666,0.079,11.615,4.542c3.078,7.02,6.447,12.011,10.856,17.611
		C153.561,352.895,153.085,358.248,149.478,361.3L149.478,361.3z"/>
</g>
<g>
</g>
<g>
</g>
<g>
</g>
<g>
</g>
<g>
</g>
<g>
</g>
<g>
</g>
<g>
</g>
<g>
</g>
<g>
</g>
<g>
</g>
<g>
</g>
<g>
</g>
<g>
</g>
<g>
</g>
</svg>
