<svg height="472pt" viewBox="-4 0 472 472.11758" width="472pt" xmlns="http://www.w3.org/2000/svg"><path d="m371.460938 436.117188c-53.601563 0-136.121094-45.6875-212.800782-122.398438-101.503906-101.503906-148.703125-213.328125-107.472656-254.5625 20.625-20.640625 59.082031-20 108.25 1.699219 46.824219 20.695312 98.78125 58.253906 146.304688 105.773437 101.511718 101.488282 148.71875 213.320313 107.476562 254.570313-11.328125 10.410156-26.394531 15.792969-41.757812 14.917969zm-278.289063-376c-11.203125-.773438-22.25 2.972656-30.671875 10.398437-15.40625 15.410156-13.597656 48.386719 5.023438 90.472656 19.90625 45.058594 56.296874 95.296875 102.457031 141.457031 46.160156 46.160157 96.390625 82.472657 141.457031 102.410157 42.085938 18.605469 75.054688 20.421875 90.472656 5.03125 15.414063-15.394531 13.597656-48.386719-5.027344-90.480469-19.894531-45.066406-56.292968-95.289062-102.453124-141.457031-46.160157-46.167969-96.402344-82.550781-141.441407-102.457031-18.707031-9.085938-39.046875-14.3125-59.816406-15.375zm0 0" fill="#fbd699"/><path d="m81.988281 338.140625c-12.800781 0-17.480469-4.328125-19.894531-8.941406-4.320312-8.25-3.730469-21.953125 39.480469-55.097657 35.40625-26.144531 72.890625-49.34375 112.085937-69.367187 17.417969-9.113281 170.664063-88.039063 188.664063-53.601563 18.007812 34.472657-134.136719 115.382813-151.574219 124.480469-38.800781 20.78125-79.234375 38.359375-120.898438 52.550781-15.382812 5.640626-31.507812 9-47.863281 9.976563zm-5.367187-16.542969c11.023437 4.351563 73.253906-11.257812 166.710937-60.160156s141.753907-91.105469 144.464844-102.6875c-11.113281-4.351562-73.289063 11.261719-166.71875 60.160156-93.433594 48.894532-141.753906 91.101563-144.457031 102.6875zm312-162.398437" fill="#c0f5f9"/><path d="m80.132812 363.261719c-22.664062 0-39.375-5.808594-46.398437-19.199219-21.675781-41.464844 68.855469-117.335938 165.085937-167.679688 96.230469-50.34375 210.167969-81.496093 231.855469-40.074218 21.679688 41.449218-68.878906 117.3125-165.085937 167.648437-65.042969 34.039063-138.203125 59.304688-185.457032 59.304688zm304.542969-230.519531c-37.597656 0-103.429687 18.558593-178.398437 57.816406-108.632813 56.832031-170.640625 122.589844-158.367188 146.054687 12.269532 23.464844 101.65625 10 210.253906-46.824219 108.601563-56.824218 170.601563-122.574218 158.335938-146.054687-3.808594-7.257813-14.984375-10.992187-31.824219-10.992187zm0 0" fill="#dbdbdb"/><path d="m82.515625 391.078125c-37.917969 0-65.792969-10.527344-77.136719-32.207031-27.03125-51.679688 51.417969-144.289063 178.609375-210.839844 127.191407-66.554688 248-78.234375 275.03125-26.554688 27.03125 51.679688-51.40625 144.289063-178.597656 210.839844-73.832031 38.632813-145.472656 58.761719-197.90625 58.761719zm-62.960937-39.632813c19.714843 37.664063 126.234374 33.265626 253.433593-33.296874 127.199219-66.558594 191.558594-151.589844 171.863281-189.230469-19.695312-37.640625-126.261718-33.28125-253.464843 33.289062-127.199219 66.566407-191.535157 151.582031-171.832031 189.238281zm0 0" fill="#6cbae5"/><path d="m376.1875 240.109375c0 79.527344-64.46875 144-144 144-79.527344 0-144-64.472656-144-144s64.472656-144 144-144c79.53125 0 144 64.472656 144 144zm0 0" fill="#3ed3c5"/><path d="m335.773438 165.347656c-15.171876-29.058594-39.847657-52.039062-69.914063-65.101562-72.535156-17.5625-146.457031 23.253906-170.234375 93.996094-23.78125 70.738281 10.476562 147.921874 78.890625 177.738281 54.910156 13.304687 112.519531-6.761719 147.277344-51.300781 34.757812-44.539063 40.226562-105.300782 13.980469-155.332032zm0 0" fill="#41dfd0"/><path d="m210.683594 221.199219c0 11.042969-8.953125 20-20 20-11.042969 0-20-8.957031-20-20 0-11.046875 8.957031-20 20-20 11.046875 0 20 8.953125 20 20zm0 0" fill="#37bbae"/><path d="m208.40625 211.925781c-5.121094-9.785156-17.207031-13.570312-26.992188-8.449219-.121093.066407-.210937.152344-.320312.21875-4.15625 7.730469-2.78125 17.269532 3.386719 23.515626 6.167969 6.25 15.691406 7.742187 23.476562 3.683593.121094-.066406.214844-.152343.328125-.21875 3.148438-5.839843 3.195313-12.867187.121094-18.75zm0 0" fill="#39c3b6"/><path d="m300.492188 280.359375c11.164062-10.371094 23.515624-19.382813 36.800781-26.851563l38.589843-20.054687c-.839843-18.179687-5.140624-36.03125-12.671874-52.597656l-7.65625-14.625-50.238282 26.128906c-13.285156 7.457031-25.636718 16.46875-36.800781 26.839844l-9.597656 8.878906c-26.449219 24.542969-59.25 41.175781-94.679688 48-18.425781 3.570313-36.230469 9.8125-52.851562 18.527344l-10.007813 5.238281 7.203125 13.714844c9.464844 16.011718 21.964844 30.027344 36.796875 41.253906 16.066406-8.195312 33.203125-14.101562 50.90625-17.542969 35.425782-6.832031 68.230469-23.460937 94.679688-48zm0 0" fill="#34b2a6"/><path d="m339.925781 174.367188-34.609375 17.992187c-13.285156 7.457031-25.636718 16.46875-36.800781 26.839844l-9.597656 8.878906c-26.449219 24.542969-59.25 41.175781-94.679688 48-18.425781 3.570313-36.230469 9.8125-52.851562 18.527344l-10.007813 5.238281 7.203125 13.714844c9.464844 16.011718 21.964844 30.027344 36.796875 41.253906 16.066406-8.195312 33.203125-14.101562 50.90625-17.542969 35.425782-6.832031 68.230469-23.460937 94.679688-48l9.558594-8.878906c11.164062-10.371094 23.519531-19.382813 36.800781-26.847656l14.121093-7.335938c2.417969-24.539062-1.550781-49.289062-11.519531-71.839843zm0 0" fill="#39c3b6"/><path d="m316.566406 123.574219c-18.707031-13.511719-40.378906-22.339844-63.203125-25.753907-19.625 7.675782-38.476562 17.203126-56.292969 28.457032l-29.867187 18.945312c-14.898437 9.453125-30.53125 17.699219-46.75 24.65625l-17.769531 7.621094c-9.707032 20.074219-14.636719 42.121094-14.398438 64.417969 12.628906-7.621094 24.34375-16.667969 34.910156-26.960938 25.816407-25.210937 58.1875-42.671875 93.433594-50.398437l12.75-2.800782c14.890625-3.261718 29.34375-8.28125 43.050782-14.953124zm0 0" fill="#34b2a6"/><path d="m266.195312 100.40625-2.109374-.511719c-2.941407-.664062-5.890626-1.242187-8.855469-1.738281-.640625-.101562-1.257813-.238281-1.898438-.335938-19.617187 7.675782-38.457031 17.203126-56.261719 28.457032l-29.867187 18.945312c-14.898437 9.453125-30.53125 17.699219-46.75 24.65625l-17.769531 7.621094c-5.921875 12.285156-10.082032 25.347656-12.351563 38.792969l-.238281 1.496093c-.800781 4.988282-1.332031 10.019532-1.601562 15.066407 0 .285156 0 .574219-.046876.855469-.128906 2.726562-.183593 5.460937-.144531 8.199218 12.628907-7.621094 24.34375-16.667968 34.910157-26.960937 25.816406-25.210938 58.1875-42.671875 93.433593-50.398438l12.753907-2.800781c14.890624-3.261719 29.339843-8.28125 43.046874-14.953125l35.3125-18.597656c-12.132812-11.613281-26.195312-21.019531-41.5625-27.792969zm0 0" fill="#39c3b6"/><path d="m359.835938 306.589844-8.304688 2.71875c-23.414062 7.691406-45.789062 18.253906-66.605469 31.449218l-18.527343 11.75c-19.121094 12.082032-39.628907 21.808594-61.082032 28.96875 12.320313 2.371094 24.902344 3.121094 37.417969 2.226563 11.101563-5.222656 21.875-11.125 32.246094-17.679687l18.511719-11.746094c16.5-10.410156 34.035156-19.082032 52.320312-25.878906 5.324219-6.832032 10.015625-14.132813 14.023438-21.808594zm0 0" fill="#34b2a6"/><path d="m274.949219 359.703125c17.945312-9.394531 33.695312-22.480469 46.214843-38.402344-12.515624 5.652344-24.621093 12.164063-36.238281 19.488281l-18.527343 11.753907c-14.117188 8.917969-29.007813 16.542969-44.496094 22.773437 18.53125-1.691406 36.550781-6.996094 53.046875-15.613281zm0 0" fill="#39c3b6"/><path d="m72.1875 56.117188c0 13.253906-10.742188 24-24 24-13.253906 0-24-10.746094-24-24 0-13.253907 10.746094-24 24-24 13.257812 0 24 10.746093 24 24zm0 0" fill="#eeac3d"/><path d="m48.1875 32.117188c-4.390625.015624-8.695312 1.25-12.429688 3.558593-5.832031 9.421875-4.414062 21.617188 3.421876 29.453125 7.832031 7.832032 20.027343 9.25 29.449218 3.421875 4.558594-7.386719 4.75-16.664062.503906-24.234375-4.246093-7.570312-12.265624-12.238281-20.945312-12.199218zm0 0" fill="#ffb841"/><path d="m448.1875 408.117188c0 17.671874-14.324219 32-32 32-17.671875 0-32-14.328126-32-32 0-17.671876 14.328125-32 32-32 17.675781 0 32 14.328124 32 32zm0 0" fill="#e88623"/><path d="m416.1875 376.117188c-6.527344 0-12.898438 2.007812-18.246094 5.753906-8.871094 12.699218-7.355468 29.9375 3.601563 40.890625s28.195312 12.46875 40.894531 3.597656c6.820312-9.773437 7.636719-22.523437 2.117188-33.085937-5.515626-10.558594-16.453126-17.171876-28.367188-17.15625zm0 0" fill="#fd9226"/><path d="m226.433594 15.996094.25-15.996094 15.996094.25-.25 15.996094zm0 0" fill="#fbedbf"/><path d="m258.433594 47.996094.25-15.996094 15.996094.25-.25 15.996094zm0 0" fill="#fbd699"/><path d="m194.433594 47.996094.25-15.996094 15.996094.25-.246094 15.996094zm0 0" fill="#fbedbf"/><path d="m176.1875 432.117188h16v16h-16zm0 0" fill="#fbd699"/><path d="m216.1875 453.667969h16v18.449219h-16zm0 0" fill="#fbedbf"/><path d="m264.1875 429.667969h16v18.449219h-16zm0 0" fill="#fbedbf"/><path d="m98.988281 336.117188c-4.113281-.007813-7.550781-3.132813-7.945312-7.226563-.398438-4.09375 2.375-7.824219 6.410156-8.621094 33.015625-6.488281 88.902344-29.03125 145.878906-58.847656 56.746094-29.703125 107.046875-62.6875 131.296875-86.105469 3.179688-3.066406 8.246094-2.972656 11.3125.210938 3.066406 3.179687 2.972656 8.242187-.207031 11.308594-25.601563 24.800781-76.097656 57.945312-134.984375 88.800781-59.113281 30.945312-115.273438 53.511719-150.21875 60.367187-.507812.089844-1.027344.128906-1.542969.113282zm0 0" fill="#c0f5f9"/><path d="m275.734375 404.285156c-1.40625 0-2.789063-.375-4-1.085937-40.625-24.460938-78.011719-53.925781-111.289063-87.707031-34.765624-34.183594-64.925781-72.753907-89.722656-114.734376-2.195312-3.835937-.863281-8.726562 2.972656-10.925781 3.839844-2.195312 8.730469-.863281 10.925782 2.972657 24.078125 40.757812 53.371094 78.199218 87.136718 111.375 32.289063 32.8125 68.574219 61.433593 108 85.203124 3.117188 1.824219 4.625 5.511719 3.675782 9-.945313 3.488282-4.113282 5.90625-7.726563 5.902344zm0 0" fill="#fbd699"/><path d="m136.988281 385.011719c-4.09375-.015625-7.515625-3.121094-7.929687-7.195313-.410156-4.074218 2.320312-7.800781 6.328125-8.636718 47.988281-10.628907 94.289062-27.796876 137.601562-51.03125 44.019531-22.453126 84.71875-50.894532 120.9375-84.511719 3.207031-2.929688 8.167969-2.765625 11.171875.371093 3.007813 3.140626 2.957032 8.105469-.109375 11.183594-37.300781 34.652344-79.222656 63.972656-124.566406 87.125-44.644531 23.933594-92.371094 41.613282-141.832031 52.539063-.527344.101562-1.0625.15625-1.601563.15625zm0 0" fill="#6cbae5"/><path d="m117.851562 359.085938c-4.109374-.011719-7.542968-3.140626-7.9375-7.234376-.394531-4.089843 2.375-7.816406 6.410157-8.613281 49.511719-11.21875 97.238281-29.203125 141.839843-53.449219 46.582032-23.441406 89.589844-53.402343 127.71875-88.976562 3.148438-2.957031 8.078126-2.878906 11.132813.175781 3.054687 3.050781 3.136719 7.980469.179687 11.128907-39.203124 36.808593-83.535156 67.742187-131.605468 91.839843-45.976563 24.960938-95.171875 43.460938-146.203125 54.984375-.503907.09375-1.019531.144532-1.535157.144532zm0 0" fill="#dbdbdb"/></svg>