<svg height="480pt" viewBox="0 -6 480 480" width="480pt" xmlns="http://www.w3.org/2000/svg"><path d="m458.59375 18.59375c-35.066406-35.066406-161.992188 35.007812-283.496094 156.503906s-191.570312 248.429688-156.503906 283.496094c35.0625 35.0625 161.992188-35 283.496094-156.503906s191.574218-248.425782 156.503906-283.496094zm-183.832031 260.167969c-104.9375 104.933593-207.089844 172.910156-228.167969 151.832031-21.082031-21.082031 46.902344-123.234375 151.804688-228.195312 104.90625-104.957032 207.113281-172.886719 228.195312-151.804688 21.078125 21.078125-46.898438 123.230469-151.832031 228.167969zm0 0" fill="#ebebeb"/><path d="m405.183594 240c0 92.785156-75.214844 168-168 168s-168-75.214844-168-168 75.214844-168 168-168 168 75.214844 168 168zm0 0" fill="#63aad1"/><path d="m381.183594 232c.003906-67.257812-40.101563-128.035156-101.945313-154.480469-85.035156-22.03125-172.683593 25.203125-201.042969 108.34375-28.359374 83.140625 12.15625 174.089844 92.933594 208.617188 50.308594 13.25 103.917969 2.359375 145.070313-29.472657 41.152343-31.828124 65.167969-80.984374 64.984375-133.007812zm0 0" fill="#6cbae5"/><path d="m371.519531 257.878906-21.558593 24.648438c-6.933594 7.925781-12.828126 16.703125-17.535157 26.121094-9.683593 19.414062-25.023437 35.433593-44 45.945312l-5.503906 3.054688c-10.042969 5.574218-19.257813 12.523437-27.378906 20.648437l-28.144531 28.152344c-.253907.320312-.484376.664062-.6875 1.023437 3.480468.214844 6.929687.527344 10.457031.527344 4 0 7.953125-.320312 11.902343-.601562l17.800782-17.796876c7.074218-7.070312 15.09375-13.121093 23.832031-17.976562l5.496094-3.058594c21.800781-12.078125 39.421875-30.488281 50.535156-52.796875 4.097656-8.203125 9.226563-15.84375 15.265625-22.738281l21.601562-24.65625c6.917969-7.902344 14.085938-15.597656 21.351563-23.199219.054687-1.742187.261719-3.449219.261719-5.207031 0-5.660156-.285156-11.316406-.855469-16.945312-11.304687 11.375-22.34375 22.863281-32.839844 34.855468zm0 0" fill="#5898bb"/><path d="m371.519531 257.878906-21.558593 24.648438c-6.933594 7.925781-12.828126 16.703125-17.535157 26.121094-9.683593 19.414062-25.023437 35.433593-44 45.945312l-5.503906 3.054688c-10.042969 5.574218-19.257813 12.523437-27.378906 20.648437l-20.046875 20.046875c9.851562-1.265625 19.570312-3.40625 29.039062-6.398438l2.320313-2.320312c7.070312-7.070312 15.09375-13.121094 23.832031-17.976562l5.496094-3.054688c21.800781-12.082031 39.421875-30.492188 50.535156-52.800781 4.09375-8.203125 9.226562-15.84375 15.265625-22.738281l12.414063-14.191407c2.933593-10.019531 4.921874-20.289062 5.9375-30.679687-2.921876 3.222656-5.9375 6.410156-8.816407 9.695312zm0 0" fill="#67b1da"/><path d="m237.183594 72c-4.710938 0-9.335938.328125-13.953125.703125l-31.230469 24.273437c-17.921875 13.933594-33.722656 30.394532-46.910156 48.871094-23.332032 32.597656-48.671875 63.707032-75.875 93.152344 0 .335938-.054688.664062-.054688 1 .042969 7.011719.527344 14.011719 1.449219 20.960938 31.609375-33.183594 60.855469-68.539063 87.519531-105.808594 12.289063-17.222656 27.015625-32.566406 43.71875-45.550782l47.558594-36.984374c-4.054688-.289063-8.09375-.617188-12.222656-.617188zm0 0" fill="#4ea7e2"/><path d="m348.207031 114.144531-65.472656 50.917969c-17.914063 13.941406-33.714844 30.402344-46.910156 48.875-36.074219 50.425781-76.925781 97.257812-121.992188 139.839844 3.621094 3.925781 7.421875 7.65625 11.398438 11.199218 45.644531-43.183593 87.023437-90.664062 123.570312-141.777343 12.300781-17.210938 27.027344-32.554688 43.726563-45.542969l67.199218-52.289062c-3.636718-3.914063-7.476562-7.65625-11.519531-11.222657zm0 0" fill="#5da0c5"/><path d="m339.265625 121.097656-56.53125 44c-17.914063 13.9375-33.714844 30.398438-46.910156 48.871094-36.074219 50.425781-76.925781 97.257812-121.992188 139.839844 3.621094 3.925781 7.421875 7.65625 11.398438 11.199218 45.644531-43.195312 87.027343-90.683593 123.570312-141.808593 12.300781-17.210938 27.027344-32.554688 43.726563-45.542969l56.703125-44.054688c-3.132813-4.304687-6.4375-8.503906-9.964844-12.503906zm0 0" fill="#67b1da"/><path d="m368.335938 135.199219-26.28125 29.601562c-33.703126 37.867188-69.53125 73.785157-107.3125 107.582031-33.773438 30.234376-66.007813 62.144532-96.574219 95.617188l-4.070313 4.457031c4.234375 3.300781 8.625 6.394531 13.175782 9.285157l2.703124-2.957032c30.210938-33.074218 62.0625-64.605468 95.4375-94.480468 38.234376-34.230469 74.492188-70.605469 108.59375-108.953126l23.929688-26.910156c-2.992188-4.59375-6.195312-9.007812-9.601562-13.242187zm0 0" fill="#428dbf"/><path d="m365.863281 162.015625c-2.375-5.199219-5.015625-10.273437-7.910156-15.199219l-15.898437 17.878906c-33.699219 37.902344-69.527344 73.855469-107.3125 107.6875-33.773438 30.234376-66.007813 62.144532-96.574219 95.617188l-4.070313 4.457031c4.234375 3.300781 8.625 6.394531 13.175782 9.285157l2.703124-2.957032c30.210938-33.074218 62.0625-64.605468 95.4375-94.480468 38.234376-34.230469 74.492188-70.605469 108.59375-108.953126zm0 0" fill="#4ea7e2"/><path d="m304.902344 86.320312-19.40625 21.839844c-33.710938 37.890625-69.542969 73.835938-107.328125 107.664063-32.742188 29.289062-64.375 60.582031-94.128907 92.992187 2.332032 5.175782 4.929688 10.226563 7.777344 15.136719l1.597656-1.746094c30.207032-33.066406 62.054688-64.59375 95.425782-94.464843 38.238281-34.230469 74.5-70.609376 108.609375-108.957032l22.246093-25.03125c-4.789062-2.710937-9.71875-5.1875-14.792968-7.433594zm0 0" fill="#5da0c5"/><path d="m188.839844 227.742188c38.238281-34.230469 74.5-70.609376 108.609375-108.957032l17.816406-20.050781c-4.257813-3.261719-8.632813-6.398437-13.195313-9.230469l-16.574218 18.65625c-33.710938 37.890625-69.542969 73.835938-107.328125 107.664063-32.742188 29.289062-64.375 60.582031-94.128907 92.992187 2.332032 5.175782 4.929688 10.226563 7.777344 15.136719l1.597656-1.746094c30.210938-33.0625 62.058594-64.589843 95.425782-94.464843zm0 0" fill="#67b1da"/><path d="m24 0h16v16h-16zm0 0" fill="#f7ba61"/><path d="m0 24h16v16h-16zm0 0" fill="#f7ba61"/><path d="m48 24h16v16h-16zm0 0" fill="#f7ba61"/><path d="m24 48h16v16h-16zm0 0" fill="#f7ba61"/><g fill="#fbd699"><path d="m272 448h16v16h-16zm0 0"/><path d="m24 112h16v16h-16zm0 0"/><path d="m8 128h16v16h-16zm0 0"/><path d="m40 128h16v16h-16zm0 0"/><path d="m24 144h16v16h-16zm0 0"/><path d="m448 304h16v16h-16zm0 0"/><path d="m432 320h16v16h-16zm0 0"/><path d="m464 320h16v16h-16zm0 0"/><path d="m448 336h16v16h-16zm0 0"/></g><path d="m424 432c0 17.671875-14.328125 32-32 32s-32-14.328125-32-32 14.328125-32 32-32 32 14.328125 32 32zm0 0" fill="#e88623"/><path d="m392 400c-11.914062-.019531-22.851562 6.597656-28.367188 17.15625-5.515624 10.558594-4.699218 23.3125 2.121094 33.082031 12.699219 8.875 29.933594 7.359375 40.890625-3.59375s12.476563-28.191406 3.601563-40.890625c-5.347656-3.746094-11.71875-5.753906-18.246094-5.753906zm0 0" fill="#fd9226"/><path d="m160 32c0 13.253906-10.746094 24-24 24s-24-10.746094-24-24 10.746094-24 24-24 24 10.746094 24 24zm0 0" fill="#985713"/><path d="m112 32c.015625 4.394531 1.25 8.699219 3.566406 12.433594 3.734375 2.316406 8.039063 3.550781 12.433594 3.566406 13.253906 0 24-10.746094 24-24-.015625-4.394531-1.25-8.699219-3.566406-12.433594-3.734375-2.316406-8.039063-3.550781-12.433594-3.566406-13.253906 0-24 10.746094-24 24zm0 0" fill="#a45e14"/><path d="m414.207031 168.304688-14.75-37.410157c-36.710937 53.1875-78.46875 102.707031-124.695312 147.867188-45.289063 46.375-94.976563 88.246093-148.363281 125.015625l37.699218 13.199218c49.640625-33.691406 95.859375-72.171874 137.992188-114.886718 41.492187-40.976563 79.03125-85.769532 112.117187-133.785156zm0 0" fill="#ebebeb"/></svg>